<svg width="21" height="21" viewBox="0 0 21 21" fill="none" xmlns="http://www.w3.org/2000/svg">
<path d="M15.667 19.2377C14.6327 20.2403 13.5034 20.082 12.4163 19.6071C11.2659 19.1216 10.2105 19.1005 8.99677 19.6071C7.47697 20.2615 6.67485 20.0715 5.76718 19.2377C0.616722 13.9289 1.37663 5.84439 7.22367 5.54887C8.64849 5.62275 9.64058 6.32988 10.4744 6.39321C11.7198 6.13991 12.9124 5.41167 14.2422 5.50665C15.8359 5.6333 17.0391 6.26656 17.8307 7.40641C14.5377 9.38005 15.3188 13.7178 18.3373 14.9316C17.7357 16.5147 16.9547 18.0873 15.6565 19.2483L15.667 19.2377ZM10.3688 5.48554C10.2105 3.13195 12.1208 1.18998 14.3161 1C14.6222 3.72299 11.8464 5.7494 10.3688 5.48554Z" fill="black"/>
</svg>
